<svg width="22" height="23" viewBox="0 0 22 23" fill="none" xmlns="http://www.w3.org/2000/svg">
<path d="M5.4375 0.0550785C5.27123 0.134766 5.12293 0.298828 5.06002 0.472265C5.03306 0.547266 5.01059 0.969141 5.01059 1.46133V2.31914L4.77691 2.37539C4.43089 2.45508 3.7703 2.80664 3.45124 3.0832C3.29845 3.21445 3.06927 3.45352 2.94344 3.61289C2.67831 3.9457 2.34127 4.63477 2.26488 4.99101L2.21095 5.23477L1.32118 5.24883C0.5078 5.26289 0.422417 5.27226 0.310072 5.36133C0.0763946 5.54414 0 5.69414 0 5.98477C0 6.20976 0.022469 6.28477 0.13032 6.43008C0.332541 6.71133 0.44938 6.73945 1.34814 6.73945H2.13456V7.29727V7.85977L1.28523 7.87383C0.5078 7.88789 0.422417 7.89727 0.310072 7.98633C0.0763946 8.16914 0 8.31914 0 8.60977C0 8.83476 0.022469 8.90977 0.13032 9.05508C0.332541 9.33633 0.44938 9.36445 1.34814 9.36445H2.13456V9.92227V10.4848L1.28523 10.4988C0.5078 10.5129 0.422417 10.5223 0.310072 10.6113C0.0763946 10.7941 0 10.9441 0 11.2348C0 11.4598 0.022469 11.5348 0.13032 11.6801C0.332541 11.9613 0.44938 11.9895 1.34814 11.9895H2.13456V12.5473V13.1098L1.28523 13.1238C0.5078 13.1379 0.422417 13.1473 0.310072 13.2363C0.0763946 13.4191 0 13.5691 0 13.8598C0 14.0848 0.022469 14.1598 0.13032 14.3051C0.332541 14.5863 0.44938 14.6145 1.34814 14.6145H2.13456V15.1723V15.7348L1.28523 15.7488C0.5078 15.7629 0.422417 15.7723 0.310072 15.8613C0.0763946 16.0441 0 16.1941 0 16.4848C0 16.7098 0.022469 16.7848 0.13032 16.9301C0.332541 17.2113 0.44938 17.2395 1.38409 17.2395H2.21095L2.26488 17.4832C2.34127 17.8441 2.67831 18.5332 2.94344 18.866C3.06927 19.0254 3.29845 19.2645 3.45124 19.3957C3.7703 19.6723 4.43089 20.0238 4.77242 20.1035L5.0061 20.1598L5.01958 21.0832L5.03306 22.0066L5.16338 22.1801C5.46896 22.602 6.0172 22.5832 6.33177 22.1426C6.41715 22.0254 6.42614 21.9363 6.43962 21.1254L6.4531 20.2395H6.98786H7.52262L7.53611 21.1207L7.54959 22.0066L7.67991 22.1801C7.98549 22.602 8.53373 22.5832 8.8483 22.1426C8.93368 22.0254 8.94267 21.9363 8.95615 21.1254L8.96963 20.2395H9.50439H10.0392L10.0526 21.1207L10.0661 22.0066L10.1964 22.1801C10.502 22.602 11.0503 22.5832 11.3648 22.1426C11.4502 22.0254 11.4592 21.9363 11.4727 21.1254L11.4862 20.2395H12.0209H12.5557L12.5692 21.1207L12.5826 22.0066L12.713 22.1801C13.0185 22.602 13.5668 22.5832 13.8814 22.1426C13.9667 22.0254 13.9757 21.9363 13.9892 21.1254L14.0027 20.2395H14.5374H15.0722L15.0857 21.1207L15.0992 22.0066L15.2295 22.1801C15.5351 22.602 16.0833 22.5832 16.3979 22.1426C16.4833 22.0254 16.4923 21.9363 16.5057 21.0879L16.5192 20.1598L16.7529 20.1035C17.0944 20.0238 17.755 19.6723 18.0741 19.3957C18.2269 19.2645 18.456 19.0254 18.5819 18.866C18.847 18.5332 19.184 17.8441 19.2604 17.4879L19.3144 17.2441L20.2041 17.2301C21.0175 17.216 21.1029 17.2066 21.2152 17.1176C21.413 16.9676 21.5118 16.7988 21.5343 16.5738C21.5658 16.302 21.4669 16.0676 21.2512 15.8988L21.0849 15.7629L20.2356 15.7488L19.3908 15.7348V15.177V14.6191L20.2401 14.6051C21.0175 14.591 21.1029 14.5816 21.2152 14.4926C21.413 14.3426 21.5118 14.1738 21.5343 13.9488C21.5658 13.677 21.4669 13.4426 21.2512 13.2738L21.0849 13.1379L20.2356 13.1238L19.3908 13.1098V12.552V11.9941L20.2401 11.9801C21.0175 11.966 21.1029 11.9566 21.2152 11.8676C21.413 11.7176 21.5118 11.5488 21.5343 11.3238C21.5658 11.052 21.4669 10.8176 21.2512 10.6488L21.0849 10.5129L20.2356 10.4988L19.3908 10.4848V9.92695V9.36914L20.2401 9.35508C21.0175 9.34101 21.1029 9.33164 21.2152 9.24258C21.413 9.09258 21.5118 8.92383 21.5343 8.69883C21.5658 8.42695 21.4669 8.19258 21.2512 8.02383L21.0849 7.88789L20.2356 7.87383L19.3908 7.85977V7.30195V6.74414L20.2401 6.73008C21.0175 6.71601 21.1029 6.70664 21.2152 6.61758C21.413 6.46758 21.5118 6.29883 21.5343 6.07383C21.5658 5.80195 21.4669 5.56758 21.2512 5.39883L21.0849 5.26289L20.1996 5.24883L19.3144 5.23477L19.2604 4.99101C19.184 4.63477 18.847 3.9457 18.5819 3.61289C18.456 3.45352 18.2269 3.21445 18.0741 3.0832C17.737 2.79727 17.1079 2.45508 16.7664 2.37539L16.5147 2.31914V1.45664C16.5147 0.48164 16.4878 0.359766 16.2181 0.148829C16.0788 0.0363274 16.0069 0.0128899 15.7912 0.0128899C15.5126 0.0128899 15.3688 0.092577 15.1935 0.336329C15.1082 0.453516 15.0992 0.542578 15.0857 1.35352L15.0722 2.23945H14.533H13.9982V1.41914C13.9982 0.48164 13.9712 0.359766 13.7016 0.148829C13.5623 0.0363274 13.4904 0.0128899 13.2747 0.0128899C12.9961 0.0128899 12.8523 0.092577 12.677 0.336329C12.5916 0.453516 12.5826 0.542578 12.5692 1.35352L12.5557 2.23945H12.0164H11.4817V1.41914C11.4817 0.48164 11.4547 0.359766 11.1851 0.148829C11.0458 0.0363274 10.9739 0.0128899 10.7582 0.0128899C10.4795 0.0128899 10.3357 0.092577 10.1605 0.336329C10.0751 0.453516 10.0661 0.542578 10.0526 1.35352L10.0392 2.23945H9.4999H8.96513V1.41914C8.96513 0.48164 8.93817 0.359766 8.66854 0.148829C8.52924 0.0363274 8.45734 0.0128899 8.24163 0.0128899C7.96302 0.0128899 7.81922 0.092577 7.64396 0.336329C7.55857 0.453516 7.54959 0.542578 7.53611 1.35352L7.52262 2.23945H6.98337H6.44861V1.41914C6.44861 0.486328 6.41715 0.359766 6.161 0.153515C5.96327 -0.00117111 5.64422 -0.0480461 5.4375 0.0550785ZM16.2541 3.79102C17.0315 3.95976 17.6561 4.57383 17.8718 5.37539C17.9482 5.66602 17.9527 5.99883 17.9527 11.202C17.9527 15.0363 17.9393 16.7941 17.9033 16.9676C17.737 17.802 17.054 18.5145 16.2541 18.6879C15.9215 18.7582 5.60377 18.7582 5.27123 18.6879C4.47133 18.5145 3.78828 17.802 3.622 16.9676C3.5546 16.6207 3.5546 5.8582 3.622 5.51133C3.78378 4.70039 4.43089 4.00195 5.20382 3.80508C5.51839 3.72539 15.8946 3.71133 16.2541 3.79102Z" fill="currentColor"/>
<path d="M8.80155 8.51606C8.7611 8.56294 8.31172 9.78638 7.80842 11.2395C7.07144 13.3442 6.89618 13.8926 6.93213 13.9629C6.97707 14.0426 7.03549 14.052 7.58373 14.052C8.05558 14.052 8.19938 14.0379 8.25331 13.9817C8.28926 13.9442 8.38363 13.7333 8.46451 13.5129L8.60832 13.1145H9.62391H10.644L10.7923 13.5364C10.8777 13.7848 10.9765 13.9817 11.026 14.0098C11.0754 14.0333 11.3675 14.0473 11.7045 14.0426L12.3022 14.0286L12.3157 13.9114C12.3292 13.7754 10.5541 8.63325 10.4463 8.50669C10.3879 8.43638 10.2845 8.427 9.62841 8.427C8.95434 8.427 8.86896 8.43638 8.80155 8.51606ZM9.95646 10.8411C10.1182 11.3333 10.2665 11.7692 10.2845 11.8161C10.3115 11.8911 10.2575 11.8958 9.6329 11.8958C9.25992 11.8958 8.95434 11.8817 8.95434 11.8583C8.95434 11.7598 9.60594 9.88481 9.6329 9.91763C9.64638 9.93638 9.79468 10.3536 9.95646 10.8411Z" fill="currentColor"/>
<path d="M12.7246 8.54888C12.6977 8.61919 12.6797 9.68325 12.6797 11.2395C12.6797 12.7958 12.6977 13.8598 12.7246 13.9301L12.7696 14.052H13.4391C14.0593 14.052 14.1177 14.0426 14.1626 13.9629C14.1896 13.902 14.2076 12.9645 14.2076 11.2395C14.2076 9.5145 14.1896 8.577 14.1626 8.51606C14.1177 8.43638 14.0593 8.427 13.4391 8.427H12.7696L12.7246 8.54888Z" fill="currentColor"/>
</svg>