<svg width="20" height="20" viewBox="0 0 20 20" fill="none" xmlns="http://www.w3.org/2000/svg">
<path d="M5.56266 17.9004V15.4475H3.896V13.2392H5.56266V11.8079H3.896V9.59961H5.56266V2.09961H11.2502C12.5986 2.09961 13.7447 2.57155 14.6885 3.51544C15.6324 4.45933 16.1043 5.60544 16.1043 6.95378C16.1043 8.30225 15.6324 9.44843 14.6885 10.3923C13.7447 11.3361 12.5986 11.8079 11.2502 11.8079H7.771V13.2392H11.1043V15.4475H7.771V17.9004H5.56266ZM7.771 9.59961H11.2502C11.985 9.59961 12.6097 9.34239 13.1243 8.82794C13.6388 8.3135 13.896 7.68878 13.896 6.95378C13.896 6.21891 13.6388 5.59426 13.1243 5.07982C12.6097 4.56523 11.985 4.30794 11.2502 4.30794H7.771V9.59961Z" fill="currentColor"/>
</svg>